<svg width="40" height="40" viewBox="0 0 40 40" fill="none" xmlns="http://www.w3.org/2000/svg">
<path fill-rule="evenodd" clip-rule="evenodd" d="M22.4609 3.33333C22.4672 3.33333 22.4729 3.33689 22.4792 3.33699C22.4854 3.33679 22.4905 3.33333 22.4999 3.33333C22.7831 3.33333 23.0212 3.48348 23.1718 3.69924L31.384 11.9114C31.5551 12.0646 31.6675 12.2811 31.6666 12.5285L31.6536 12.5919L31.6666 35.8325C31.6666 36.0539 31.5787 36.2663 31.4224 36.4225C31.2662 36.5788 31.0546 36.6667 30.8333 36.6667H9.16659C8.70597 36.6667 8.33325 36.2939 8.33325 35.8333V4.16667C8.33325 3.70605 8.70597 3.33333 9.16659 3.33333H22.4609ZM21.6705 5H9.99992V35H29.9999L29.9872 13.3567L22.5357 13.3333C22.0784 13.3317 21.7073 12.9614 21.7056 12.5041L21.6705 5ZM19.1666 14.6045C19.6272 14.6045 19.9999 14.9772 19.9999 15.4378V16.8132C21.6252 17.0831 22.9109 17.8389 22.9752 17.8784C23.3691 18.116 23.4944 18.6271 23.2568 19.021C23.0175 19.4149 22.5048 19.5402 22.1142 19.305C22.0979 19.2961 20.5484 18.3781 18.9143 18.3781C17.6659 18.3781 16.4013 18.9355 16.4013 20.0016C16.4013 21.1971 17.7278 21.8115 19.7525 22.6115C21.691 23.3781 23.8883 24.2472 23.8883 26.4185C23.8883 28.3716 22.4475 29.6098 19.9999 29.8462V31.1914C19.9999 31.652 19.6272 32.0247 19.1666 32.0247C18.706 32.0247 18.3333 31.652 18.3333 31.1914V29.8523C16.0008 29.6459 14.8966 28.594 14.7688 28.4611C14.4482 28.1299 14.4579 27.6025 14.7883 27.2827C15.122 26.9629 15.6493 26.9727 15.9667 27.3039C15.9976 27.3332 16.9433 28.2292 19.1243 28.2292C20.2815 28.2292 22.2216 27.994 22.2216 26.4185C22.2216 25.4525 21.0009 24.8975 19.1389 24.1618C17.0751 23.3455 14.7346 22.4202 14.7346 20.0016C14.7346 18.2532 16.2204 16.9584 18.3333 16.7533V15.4378C18.3333 14.9772 18.706 14.6045 19.1666 14.6045ZM23.3431 6.22731L23.3691 11.6691L28.8021 11.6863L23.3431 6.22731Z" fill="white"/>
</svg>
